<svg class="diagram-root" style="background: #f5f6f6" xmlns="http://www.w3.org/2000/svg" xmlns:xlink="http://www.w3.org/1999/xlink"><style>.diagram-root { font-family: "Helvetica Neue", sans-serif; font-size: 12px; } .t { overflow: visible; } .t-bg { y: 40; fill: #fff;   } .th { fill: #005aa0;   } .tht { fill: #fff; font-size: 14px;  } .tf { fill: #323c46; overflow: visible; } .tf.pk { fill: #005aa0; font-weight: bold; } .tf.fk { font-weight: bold; } .ty { fill: #adb1b5; font-weight: normal; text-anchor: end; } .r { fill: transparent; stroke: #c3c3c3; stroke-width: 1; } .l { stroke: 1; } .i { fill: #c2c7ce; stroke: #c2c7ce; } .i.ix { fill: #afb3b6; stroke: #000; } .fa { fill: transparent; overflow: visible; } .fa .bg.hover { fill: #f7f7f7; } .c { cy: 12; r: 4; stroke: #d2d2dc; fill: #d2d2dc; } .hr { fill: transparent; stroke: #323c46; stroke-opacity: 0.035; stroke-width: 13; } .dc { stroke: #fa5a3c; fill: #fa5a3c; } .x { stroke: white; stroke-width: 1; } .hl .th { fill: #1b9bff; } .hl .tht {  } .fhl .bg { fill: #e7f4ff; } .fhls .bg {  } .r.hl { stroke: #1b9bff; } .dim { opacity: 0.25; }</style><g class="drawing-wrapper" transform="translate(-39, -76) scale(1,1)"><g class="rs"><path d="M 776 508 m -1, 0 a 1,1 0 1,0 2,0 a 1,1 0 1,0 -2,0 M 776 508 m -0.5, 0 a 0.5,0.5 0 1,0 1,0 a 0.5,0.5 0 1,0 -1,0  M776 508 L776 508 764 508 M 776 514 m -1, 0 a 1,1 0 1,0 2,0 a 1,1 0 1,0 -2,0 M 776 514 m -0.5, 0 a 0.5,0.5 0 1,0 1,0 a 0.5,0.5 0 1,0 -1,0  M776 514 L776 514 769 508 776 502 M 776 502 m -1, 0 a 1,1 0 1,0 2,0 a 1,1 0 1,0 -2,0 M 776 502 m -0.5, 0 a 0.5,0.5 0 1,0 1,0 a 0.5,0.5 0 1,0 -1,0  M764 508 Q 700.26 508, 636.52 578.5 T 509.03 649 M 497.03 649 m -1, 0 a 1,1 0 1,0 2,0 a 1,1 0 1,0 -2,0 M 497.03 649 m -0.5, 0 a 0.5,0.5 0 1,0 1,0 a 0.5,0.5 0 1,0 -1,0  M497.03 649 L497.03 649 509.03 649 M503.03 655 L503.03 655 503.03 643" id="h3304076154" class="r"></path><path d="M 776 533 m -1, 0 a 1,1 0 1,0 2,0 a 1,1 0 1,0 -2,0 M 776 533 m -0.5, 0 a 0.5,0.5 0 1,0 1,0 a 0.5,0.5 0 1,0 -1,0  M776 533 L776 533 764 533 M 776 539 m -1, 0 a 1,1 0 1,0 2,0 a 1,1 0 1,0 -2,0 M 776 539 m -0.5, 0 a 0.5,0.5 0 1,0 1,0 a 0.5,0.5 0 1,0 -1,0  M776 539 L776 539 769 533 776 527 M 776 527 m -1, 0 a 1,1 0 1,0 2,0 a 1,1 0 1,0 -2,0 M 776 527 m -0.5, 0 a 0.5,0.5 0 1,0 1,0 a 0.5,0.5 0 1,0 -1,0  M764 533 Q 700.26 533, 636.52 591 T 509.03 649 M 497.03 649 m -1, 0 a 1,1 0 1,0 2,0 a 1,1 0 1,0 -2,0 M 497.03 649 m -0.5, 0 a 0.5,0.5 0 1,0 1,0 a 0.5,0.5 0 1,0 -1,0  M497.03 649 L497.03 649 509.03 649 M503.03 655 L503.03 655 503.03 643" id="h3375333521" class="r"></path><path d="M 408 371 m -1, 0 a 1,1 0 1,0 2,0 a 1,1 0 1,0 -2,0 M 408 371 m -0.5, 0 a 0.5,0.5 0 1,0 1,0 a 0.5,0.5 0 1,0 -1,0  M408 371 L408 371 396 371 M 408 377 m -1, 0 a 1,1 0 1,0 2,0 a 1,1 0 1,0 -2,0 M 408 377 m -0.5, 0 a 0.5,0.5 0 1,0 1,0 a 0.5,0.5 0 1,0 -1,0  M408 377 L408 377 401 371 408 365 M 408 365 m -1, 0 a 1,1 0 1,0 2,0 a 1,1 0 1,0 -2,0 M 408 365 m -0.5, 0 a 0.5,0.5 0 1,0 1,0 a 0.5,0.5 0 1,0 -1,0  M396 371 Q 351.26 371, 306.52 267 T 217.04 163 M 205.04 163 m -1, 0 a 1,1 0 1,0 2,0 a 1,1 0 1,0 -2,0 M 205.04 163 m -0.5, 0 a 0.5,0.5 0 1,0 1,0 a 0.5,0.5 0 1,0 -1,0  M205.04 163 L205.04 163 217.04 163 M211.04 169 L211.04 169 211.04 157" id="h1393268232" class="r"></path><path d="M 408 396 m -1, 0 a 1,1 0 1,0 2,0 a 1,1 0 1,0 -2,0 M 408 396 m -0.5, 0 a 0.5,0.5 0 1,0 1,0 a 0.5,0.5 0 1,0 -1,0  M408 396 L408 396 396 396 M 408 402 m -1, 0 a 1,1 0 1,0 2,0 a 1,1 0 1,0 -2,0 M 408 402 m -0.5, 0 a 0.5,0.5 0 1,0 1,0 a 0.5,0.5 0 1,0 -1,0  M408 402 L408 402 401 396 408 390 M 408 390 m -1, 0 a 1,1 0 1,0 2,0 a 1,1 0 1,0 -2,0 M 408 390 m -0.5, 0 a 0.5,0.5 0 1,0 1,0 a 0.5,0.5 0 1,0 -1,0  M396 396 C 302.8 396, 319 649, 369 649 M 381 649 m -1, 0 a 1,1 0 1,0 2,0 a 1,1 0 1,0 -2,0 M 381 649 m -0.5, 0 a 0.5,0.5 0 1,0 1,0 a 0.5,0.5 0 1,0 -1,0  M381 649 L381 649 369 649 M375 655 L375 655 375 643" id="h333274917" class="r"></path><path d="M 369 167 m -1, 0 a 1,1 0 1,0 2,0 a 1,1 0 1,0 -2,0 M 369 167 m -0.5, 0 a 0.5,0.5 0 1,0 1,0 a 0.5,0.5 0 1,0 -1,0  M369 167 L369 167 357 167 M 369 173 m -1, 0 a 1,1 0 1,0 2,0 a 1,1 0 1,0 -2,0 M 369 173 m -0.5, 0 a 0.5,0.5 0 1,0 1,0 a 0.5,0.5 0 1,0 -1,0  M369 173 L369 173 362 167 369 161 M 369 161 m -1, 0 a 1,1 0 1,0 2,0 a 1,1 0 1,0 -2,0 M 369 161 m -0.5, 0 a 0.5,0.5 0 1,0 1,0 a 0.5,0.5 0 1,0 -1,0  M357 167 Q 322.01 167, 287.02 165 T 217.04 163 M 205.04 163 m -1, 0 a 1,1 0 1,0 2,0 a 1,1 0 1,0 -2,0 M 205.04 163 m -0.5, 0 a 0.5,0.5 0 1,0 1,0 a 0.5,0.5 0 1,0 -1,0  M205.04 163 L205.04 163 217.04 163 M211.04 169 L211.04 169 211.04 157" id="h4133556020" class="r"></path><path d="M 494.38 192 m -1, 0 a 1,1 0 1,0 2,0 a 1,1 0 1,0 -2,0 M 494.38 192 m -0.5, 0 a 0.5,0.5 0 1,0 1,0 a 0.5,0.5 0 1,0 -1,0  M494.38 192 L494.38 192 506.38 192 M 494.38 198 m -1, 0 a 1,1 0 1,0 2,0 a 1,1 0 1,0 -2,0 M 494.38 198 m -0.5, 0 a 0.5,0.5 0 1,0 1,0 a 0.5,0.5 0 1,0 -1,0  M494.38 198 L494.38 198 501.38 192 494.38 186 M 494.38 186 m -1, 0 a 1,1 0 1,0 2,0 a 1,1 0 1,0 -2,0 M 494.38 186 m -0.5, 0 a 0.5,0.5 0 1,0 1,0 a 0.5,0.5 0 1,0 -1,0  M506.38 192 Q 547.29 192, 588.19 178.5 T 670 165 M 682 165 m -1, 0 a 1,1 0 1,0 2,0 a 1,1 0 1,0 -2,0 M 682 165 m -0.5, 0 a 0.5,0.5 0 1,0 1,0 a 0.5,0.5 0 1,0 -1,0  M682 165 L682 165 670 165 M676 171 L676 171 676 159" id="h1560808438" class="r"></path></g><g class="hrs"></g><g class="ts"><svg width="116.03" height="175" x="381" y="592" id="h1537667952" class="t"><rect height="40" width="116.03" class="th"></rect><text x="13" y="25" class="tht">User</text><rect height="135" width="116.03" class="t-bg"></rect><text x="13" y="61" class="tf pk">id<tspan x="103.03" class="ty">bigint</tspan></text><path d="M7,14A2,2 0 0,1 5,12A2,2 0 0,1 7,10A2,2 0 0,1 9,12A2,2 0 0,1 7,14M12.65,10C11.83,7.67 9.61,6 7, 6A6, 6 0 0, 0 1, 12A6, 6 0 0, 0 7, 18C9.61, 18 11.83, 16.33 12.65, 14H17V18H21V14H23V10H12.65Z" class="i pk" transform="translate(54.3425, 48) scale(0.65)"></path><text x="13" y="86" class="tf">email<tspan x="103.03" class="ty">varchar</tspan></text><text x="13" y="111" class="tf">login<tspan x="103.03" class="ty">varchar</tspan></text><text x="13" y="136" class="tf">name<tspan x="103.03" class="ty">varchar</tspan></text><text x="13" y="161" class="tf">birthday<tspan x="103.03" class="ty">date</tspan></text></svg><svg width="150.73" height="125" x="776" y="451" id="h1016576128" class="t"><rect height="40" width="150.73" class="th"></rect><text x="13" y="25" class="tht">Friendship</text><rect height="85" width="150.73" class="t-bg"></rect><text x="13" y="61" class="tf pk">requester_id<tspan x="137.73" class="ty">int</tspan></text><path d="M7,14A2,2 0 0,1 5,12A2,2 0 0,1 7,10A2,2 0 0,1 9,12A2,2 0 0,1 7,14M12.65,10C11.83,7.67 9.61,6 7, 6A6, 6 0 0, 0 1, 12A6, 6 0 0, 0 7, 18C9.61, 18 11.83, 16.33 12.65, 14H17V18H21V14H23V10H12.65Z" class="i pk" transform="translate(105.05617187499999, 48) scale(0.65)"></path><text x="13" y="86" class="tf pk">addressee_id<tspan x="137.73" class="ty">int</tspan></text><path d="M7,14A2,2 0 0,1 5,12A2,2 0 0,1 7,10A2,2 0 0,1 9,12A2,2 0 0,1 7,14M12.65,10C11.83,7.67 9.61,6 7, 6A6, 6 0 0, 0 1, 12A6, 6 0 0, 0 7, 18C9.61, 18 11.83, 16.33 12.65, 14H17V18H21V14H23V10H12.65Z" class="i pk" transform="translate(105.05617187499999, 73) scale(0.65)"></path><text x="13" y="111" class="tf">status<tspan x="137.73" class="ty">varchar</tspan></text></svg><svg width="144.04" height="200" x="61" y="106" id="h2744470858" class="t"><rect height="40" width="144.04" class="th"></rect><text x="13" y="25" class="tht">Film</text><rect height="160" width="144.04" class="t-bg"></rect><text x="13" y="61" class="tf pk">id<tspan x="131.04" class="ty">bigint</tspan></text><path d="M7,14A2,2 0 0,1 5,12A2,2 0 0,1 7,10A2,2 0 0,1 9,12A2,2 0 0,1 7,14M12.65,10C11.83,7.67 9.61,6 7, 6A6, 6 0 0, 0 1, 12A6, 6 0 0, 0 7, 18C9.61, 18 11.83, 16.33 12.65, 14H17V18H21V14H23V10H12.65Z" class="i pk" transform="translate(82.35249999999999, 48) scale(0.65)"></path><text x="13" y="86" class="tf">name<tspan x="131.04" class="ty">varchar</tspan></text><text x="13" y="111" class="tf">rating<tspan x="131.04" class="ty">varchar</tspan></text><text x="13" y="136" class="tf">description<tspan x="131.04" class="ty">varchar</tspan></text><text x="13" y="161" class="tf">release_date<tspan x="131.04" class="ty">date</tspan></text><text x="13" y="186" class="tf">duration<tspan x="131.04" class="ty">int</tspan></text></svg><svg width="129.36" height="100" x="408" y="314" id="h1598962859" class="t"><rect height="40" width="129.36" class="th"></rect><text x="13" y="25" class="tht">Film_Likes</text><rect height="60" width="129.36" class="t-bg"></rect><text x="13" y="61" class="tf pk">film_id<tspan x="116.36000000000001" class="ty">bigint</tspan></text><path d="M7,14A2,2 0 0,1 5,12A2,2 0 0,1 7,10A2,2 0 0,1 9,12A2,2 0 0,1 7,14M12.65,10C11.83,7.67 9.61,6 7, 6A6, 6 0 0, 0 1, 12A6, 6 0 0, 0 7, 18C9.61, 18 11.83, 16.33 12.65, 14H17V18H21V14H23V10H12.65Z" class="i pk" transform="translate(67.67250000000001, 48) scale(0.65)"></path><text x="13" y="86" class="tf pk">user_id<tspan x="116.36000000000001" class="ty">int</tspan></text><path d="M7,14A2,2 0 0,1 5,12A2,2 0 0,1 7,10A2,2 0 0,1 9,12A2,2 0 0,1 7,14M12.65,10C11.83,7.67 9.61,6 7, 6A6, 6 0 0, 0 1, 12A6, 6 0 0, 0 7, 18C9.61, 18 11.83, 16.33 12.65, 14H17V18H21V14H23V10H12.65Z" class="i pk" transform="translate(83.68617187500001, 73) scale(0.65)"></path></svg><svg width="125.38" height="100" x="369" y="110" id="h1991445889" class="t"><rect height="40" width="125.38" class="th"></rect><text x="13" y="25" class="tht">Film_Genre</text><rect height="60" width="125.38" class="t-bg"></rect><text x="13" y="61" class="tf pk">film_id<tspan x="112.38" class="ty">int</tspan></text><path d="M7,14A2,2 0 0,1 5,12A2,2 0 0,1 7,10A2,2 0 0,1 9,12A2,2 0 0,1 7,14M12.65,10C11.83,7.67 9.61,6 7, 6A6, 6 0 0, 0 1, 12A6, 6 0 0, 0 7, 18C9.61, 18 11.83, 16.33 12.65, 14H17V18H21V14H23V10H12.65Z" class="i pk" transform="translate(79.706171875, 48) scale(0.65)"></path><text x="13" y="86" class="tf pk">genre_id<tspan x="112.38" class="ty">int</tspan></text><path d="M7,14A2,2 0 0,1 5,12A2,2 0 0,1 7,10A2,2 0 0,1 9,12A2,2 0 0,1 7,14M12.65,10C11.83,7.67 9.61,6 7, 6A6, 6 0 0, 0 1, 12A6, 6 0 0, 0 7, 18C9.61, 18 11.83, 16.33 12.65, 14H17V18H21V14H23V10H12.65Z" class="i pk" transform="translate(79.706171875, 73) scale(0.65)"></path></svg><svg width="125.38" height="100" x="682" y="108" id="h807582512" class="t"><rect height="40" width="125.38" class="th"></rect><text x="13" y="25" class="tht">Genre</text><rect height="60" width="125.38" class="t-bg"></rect><text x="13" y="61" class="tf pk">genre_id<tspan x="112.38" class="ty">int</tspan></text><path d="M7,14A2,2 0 0,1 5,12A2,2 0 0,1 7,10A2,2 0 0,1 9,12A2,2 0 0,1 7,14M12.65,10C11.83,7.67 9.61,6 7, 6A6, 6 0 0, 0 1, 12A6, 6 0 0, 0 7, 18C9.61, 18 11.83, 16.33 12.65, 14H17V18H21V14H23V10H12.65Z" class="i pk" transform="translate(79.706171875, 48) scale(0.65)"></path><text x="13" y="86" class="tf">name<tspan x="112.38" class="ty">varchar</tspan></text></svg></g></g><text class="qdbd-link" x="10" y="20">www.quickdatabasediagrams.com</text></svg>